# xmcd CD database file
#
# Track frame offsets:
#	187
#	15620
#	31062
#	42650
#	53465
#	65865
#	82100
#	99095
#	110985
#	127605
#	140840
#	156337
#
# Disc length: 2274 seconds
#
# Revision: 2
# Processed by: cddbd v1.5.2PL0 Copyright (c) Steve Scherf et al.
# Submitted via: CDex 1.51
#
DISCID=a108e00c
DTITLE=トニー谷 - ジス･イズ･ミスター･トニー谷
DYEAR=1987
DGENRE=コミックソング
TTITLE0=さいざんす･マンボ
TTITLE1=チャンバラ･マンボ
TTITLE2=ブクブク･マンボ （Bukubuku-Mambo）
TTITLE3=馬鹿ぢゃなかろか
TTITLE4=あゝ家庭の事情！
TTITLE5=こんなに變るものかしら
TTITLE6=サンタクロース･アイ･アム橇 （ジングル･ベル）
TTITLE7=オッパポロポン節
TTITLE8=そろばんチャチャチャ
TTITLE9=ガッポリ節
TTITLE10=あなたのおなまえ何ァんてェの
TTITLE11=レディス＆ヂェントルメン＆おとっさん、おっかさん （ユー･ビロング･トゥ･ミー）
EXTD=YEAR: 1987
EXTT0=
EXTT1=
EXTT2=
EXTT3=
EXTT4=
EXTT5=
EXTT6=
EXTT7=
EXTT8=
EXTT9=
EXTT10=
EXTT11=
PLAYORDER=
